<?xml version="1.0" standalone="no"?>
<!DOCTYPE svg PUBLIC "-//W3C//DTD SVG 20010904//EN"
 "http://www.w3.org/TR/2001/REC-SVG-20010904/DTD/svg10.dtd">
<svg version="1.0" xmlns="http://www.w3.org/2000/svg"
 width="153.000000pt" height="56.000000pt" viewBox="0 0 153.000000 56.000000"
 preserveAspectRatio="xMidYMid meet">

<g transform="translate(0.000000,56.000000) scale(0.100000,-0.100000)"
fill="#000000" stroke="none">
<path d="M230 421 c-89 -48 -122 -145 -78 -231 55 -107 194 -130 274 -45 29
31 59 107 46 120 -3 3 -43 5 -89 5 l-83 0 0 85 c0 96 -5 101 -70 66z"/>
<path d="M390 335 l-54 -55 77 0 c73 0 77 1 77 23 0 19 -33 87 -43 87 -1 0
-27 -25 -57 -55z"/>
<path d="M570 285 c0 -98 1 -105 20 -105 16 0 20 7 20 34 0 32 2 34 45 40 72
11 97 65 50 111 -20 21 -34 25 -80 25 l-55 0 0 -105z m108 38 c-2 -23 -8 -29
-35 -31 -31 -3 -33 -1 -33 27 0 29 3 31 36 31 33 0 35 -2 32 -27z"/>
<path d="M760 285 c0 -98 1 -105 20 -105 19 0 20 7 20 105 0 98 -1 105 -20
105 -19 0 -20 -7 -20 -105z"/>
<path d="M840 285 l0 -105 54 0 c68 0 85 7 97 38 7 18 5 31 -7 49 -11 18 -13
28 -5 36 18 18 12 55 -11 71 -14 10 -44 16 -75 16 l-53 0 0 -105z m107 49 c7
-19 -14 -35 -42 -32 -12 2 -21 12 -23 26 -3 19 1 22 28 22 19 0 33 -6 37 -16z
m1 -90 c2 -16 -4 -23 -23 -28 -33 -9 -45 -1 -45 30 0 22 4 25 33 22 24 -2 33
-8 35 -24z"/>
<path d="M1079 363 c-6 -16 -24 -63 -39 -105 l-29 -78 24 0 c14 0 25 7 28 20
7 29 83 29 92 0 6 -19 45 -29 45 -11 0 5 -16 52 -36 105 -29 75 -41 96 -56 96
-11 0 -23 -11 -29 -27z m46 -75 c6 -25 4 -28 -18 -28 -24 0 -25 1 -14 35 11
38 22 36 32 -7z"/>
<path d="M1253 380 c-27 -11 -38 -43 -23 -69 5 -11 30 -29 55 -40 45 -20 58
-44 29 -55 -17 -7 -54 10 -54 24 0 6 -9 10 -20 10 -24 0 -27 -31 -6 -49 26
-22 83 -25 111 -7 37 24 32 74 -10 95 -77 39 -80 42 -60 57 16 12 22 12 41 -1
48 -31 78 -3 32 29 -25 17 -61 20 -95 6z"/>
</g>
</svg>
