<svg xmlns="http://www.w3.org/2000/svg" xmlns:xlink="http://www.w3.org/1999/xlink" width="500" zoomAndPan="magnify" viewBox="0 0 375 374.999991" height="500" preserveAspectRatio="xMidYMid meet" version="1.0"><defs><g/><clipPath id="424d7262db"><path d="M 77 156 L 121.191406 156 L 121.191406 188 L 77 188 Z M 77 156 " clip-rule="nonzero"/></clipPath><clipPath id="d7dd2e7b0c"><path d="M 75 141.148438 L 107 141.148438 L 107 186 L 75 186 Z M 75 141.148438 " clip-rule="nonzero"/></clipPath><clipPath id="dafb1a8a09"><path d="M 27.441406 145 L 117 145 L 117 234.148438 L 27.441406 234.148438 Z M 27.441406 145 " clip-rule="nonzero"/></clipPath></defs><rect x="-37.5" width="450" fill="#ffffff" y="-37.499999" height="449.999989" fill-opacity="1"/><rect x="-37.5" width="450" fill="#ffffff" y="-37.499999" height="449.999989" fill-opacity="1"/><rect x="-37.5" width="450" fill="#ffffff" y="-37.499999" height="449.999989" fill-opacity="1"/><g clip-path="url(#424d7262db)"><path fill="#3949ab" d="M 108.148438 156.09375 L 77.058594 187.21875 L 121.113281 187.21875 C 121.054688 175.0625 116.109375 164.070312 108.148438 156.09375 Z M 108.148438 156.09375 " fill-opacity="1" fill-rule="nonzero"/></g><g clip-path="url(#d7dd2e7b0c)"><path fill="#7986cb" d="M 75.09375 141.148438 L 75.09375 185.277344 L 75.117188 185.277344 L 106.207031 154.152344 C 98.238281 146.167969 87.246094 141.207031 75.09375 141.148438 Z M 75.09375 141.148438 " fill-opacity="1" fill-rule="nonzero"/></g><g clip-path="url(#dafb1a8a09)"><path fill="#1a237e" d="M 72.070312 189.539062 L 72.070312 145.410156 C 71.992188 145.410156 71.910156 145.40625 71.832031 145.40625 C 47.355469 145.40625 27.515625 165.273438 27.515625 189.777344 C 27.515625 214.28125 47.355469 234.148438 71.832031 234.148438 C 96.308594 234.148438 116.152344 214.28125 116.152344 189.777344 C 116.152344 189.699219 116.148438 189.621094 116.148438 189.539062 Z M 72.070312 189.539062 " fill-opacity="1" fill-rule="nonzero"/></g><g fill="#000000" fill-opacity="1"><g transform="translate(135.365035, 212.428654)"><g><path d="M 15.5625 -18.578125 L 15.5625 0 L 4.703125 0 L 4.703125 -52.703125 L 25.265625 -52.703125 C 29.222656 -52.703125 32.703125 -51.976562 35.703125 -50.53125 C 38.710938 -49.082031 41.023438 -47.023438 42.640625 -44.359375 C 44.265625 -41.691406 45.078125 -38.660156 45.078125 -35.265625 C 45.078125 -30.097656 43.304688 -26.023438 39.765625 -23.046875 C 36.234375 -20.066406 31.34375 -18.578125 25.09375 -18.578125 Z M 15.5625 -27.375 L 25.265625 -27.375 C 28.140625 -27.375 30.332031 -28.046875 31.84375 -29.390625 C 33.351562 -30.742188 34.109375 -32.675781 34.109375 -35.1875 C 34.109375 -37.769531 33.347656 -39.859375 31.828125 -41.453125 C 30.304688 -43.046875 28.203125 -43.863281 25.515625 -43.90625 L 15.5625 -43.90625 Z M 15.5625 -27.375 "/></g></g></g><g fill="#000000" fill-opacity="1"><g transform="translate(183.182144, 212.428654)"><g><path d="M 16.25 0 L 5.390625 0 L 5.390625 -52.703125 L 16.25 -52.703125 Z M 16.25 0 "/></g></g></g><g fill="#000000" fill-opacity="1"><g transform="translate(204.792147, 212.428654)"><g><path d="M 4.703125 0 L 4.703125 -52.703125 L 23.171875 -52.703125 C 29.566406 -52.703125 34.414062 -51.476562 37.71875 -49.03125 C 41.03125 -46.582031 42.6875 -42.992188 42.6875 -38.265625 C 42.6875 -35.679688 42.019531 -33.40625 40.6875 -31.4375 C 39.363281 -29.46875 37.519531 -28.023438 35.15625 -27.109375 C 37.851562 -26.429688 39.976562 -25.066406 41.53125 -23.015625 C 43.09375 -20.972656 43.875 -18.46875 43.875 -15.5 C 43.875 -10.425781 42.253906 -6.585938 39.015625 -3.984375 C 35.785156 -1.378906 31.179688 -0.0507812 25.203125 0 Z M 15.5625 -22.953125 L 15.5625 -8.71875 L 24.875 -8.71875 C 27.425781 -8.71875 29.421875 -9.328125 30.859375 -10.546875 C 32.296875 -11.765625 33.015625 -13.453125 33.015625 -15.609375 C 33.015625 -20.429688 30.515625 -22.878906 25.515625 -22.953125 Z M 15.5625 -30.625 L 23.609375 -30.625 C 29.085938 -30.71875 31.828125 -32.898438 31.828125 -37.171875 C 31.828125 -39.566406 31.128906 -41.285156 29.734375 -42.328125 C 28.347656 -43.378906 26.160156 -43.90625 23.171875 -43.90625 L 15.5625 -43.90625 Z M 15.5625 -30.625 "/></g></g></g><g fill="#000000" fill-opacity="1"><g transform="translate(252.102488, 212.428654)"><g><path d="M 34.46875 -10.859375 L 15.421875 -10.859375 L 11.796875 0 L 0.25 0 L 19.875 -52.703125 L 29.9375 -52.703125 L 49.671875 0 L 38.125 0 Z M 18.359375 -19.65625 L 31.53125 -19.65625 L 24.90625 -39.390625 Z M 18.359375 -19.65625 "/></g></g></g><g fill="#000000" fill-opacity="1"><g transform="translate(301.982864, 212.428654)"><g><path d="M 32.03125 -13.828125 C 32.03125 -15.878906 31.304688 -17.453125 29.859375 -18.546875 C 28.410156 -19.648438 25.804688 -20.8125 22.046875 -22.03125 C 18.285156 -23.25 15.304688 -24.445312 13.109375 -25.625 C 7.117188 -28.863281 4.125 -33.222656 4.125 -38.703125 C 4.125 -41.546875 4.925781 -44.082031 6.53125 -46.3125 C 8.132812 -48.550781 10.4375 -50.296875 13.4375 -51.546875 C 16.445312 -52.804688 19.820312 -53.4375 23.5625 -53.4375 C 27.332031 -53.4375 30.6875 -52.753906 33.625 -51.390625 C 36.570312 -50.023438 38.859375 -48.097656 40.484375 -45.609375 C 42.117188 -43.128906 42.9375 -40.304688 42.9375 -37.140625 L 32.078125 -37.140625 C 32.078125 -39.554688 31.316406 -41.429688 29.796875 -42.765625 C 28.273438 -44.109375 26.140625 -44.78125 23.390625 -44.78125 C 20.734375 -44.78125 18.664062 -44.21875 17.1875 -43.09375 C 15.71875 -41.976562 14.984375 -40.5 14.984375 -38.65625 C 14.984375 -36.945312 15.847656 -35.515625 17.578125 -34.359375 C 19.304688 -33.203125 21.847656 -32.113281 25.203125 -31.09375 C 31.378906 -29.238281 35.878906 -26.9375 38.703125 -24.1875 C 41.523438 -21.4375 42.9375 -18.007812 42.9375 -13.90625 C 42.9375 -9.34375 41.207031 -5.765625 37.75 -3.171875 C 34.300781 -0.578125 29.660156 0.71875 23.828125 0.71875 C 19.765625 0.71875 16.066406 -0.0195312 12.734375 -1.5 C 9.410156 -2.988281 6.875 -5.019531 5.125 -7.59375 C 3.375 -10.175781 2.5 -13.171875 2.5 -16.578125 L 13.390625 -16.578125 C 13.390625 -10.765625 16.867188 -7.859375 23.828125 -7.859375 C 26.398438 -7.859375 28.410156 -8.378906 29.859375 -9.421875 C 31.304688 -10.472656 32.03125 -11.941406 32.03125 -13.828125 Z M 32.03125 -13.828125 "/></g></g></g></svg>